<?xml version="1.0" encoding="utf-8"?>
<!-- Generator: Adobe Illustrator 17.1.0, SVG Export Plug-In . SVG Version: 6.00 Build 0)  -->
<!DOCTYPE svg PUBLIC "-//W3C//DTD SVG 1.1//EN" "http://www.w3.org/Graphics/SVG/1.1/DTD/svg11.dtd">
<svg version="1.1" xmlns="http://www.w3.org/2000/svg" xmlns:xlink="http://www.w3.org/1999/xlink" x="0px" y="0px"
	 viewBox="0 0 709.015 259.758" enable-background="new 0 0 709.015 259.758" xml:space="preserve">
<g id="Layer_1" display="none">
</g>
<g id="Layer_2">
	<g>
		<g>
			<path fill="#FFFFFF" d="M0.939,87.639c0.232-2.843,0.168-5.712,0.191-8.57c0.037-4.52,0.034-9.04,0.065-13.56
				c0.023-3.343,0.051-6.686,0.118-10.028c0.076-3.766-0.232-7.608,0.416-11.278c0.738-4.181-1.138-8.519,1.122-12.612
				c0.53-0.959-0.022-2.701-0.436-3.964c-1.516-4.619-1.436-8.975,1.526-13.054c1.431-1.972,2.688-4.076,4.186-5.993
				c1.673-2.141,3.376-4.09,6.498-4.493c4.979-0.642,9.884-1.839,14.84-2.69c0.988-0.169,2.088,0.361,3.089,0.222
				c2.142-0.296,4.291-0.68,6.366-1.278c3.37-0.971,6.398,0.285,9.059,1.801c3.769,2.146,3.276,5.937,2.304,9.488
				c-0.805,2.942-0.568,5.699,0.645,8.476c1.036,2.372,0.199,6.271-1.979,7.783c-0.848,0.589-2.574,0.334-3.739-0.04
				c-2.335-0.751-4.537-1.907-6.844-2.758c-0.512-0.189-1.447-0.023-1.826,0.349c-2.876,2.821-5.636,5.681-6.256,10.005
				c-0.415,2.894-1.365,5.708-1.957,8.583c-0.149,0.725,0.226,1.543,0.241,2.32c0.051,2.7,0,5.403,0.083,8.101
				c0.072,2.339,0.305,4.672,0.412,7.01c0.115,2.507,1.195,4.908-0.037,7.574c-0.605,1.309,0.243,3.245,0.268,4.9
				c0.056,3.828,0.001,7.658,0.011,11.487c0.007,2.639,0.066,5.277,0.065,7.916c-0.001,0.914-0.161,1.827-0.168,2.741
				c-0.026,3.661-0.615,7.447,0.123,10.951c0.944,4.48-0.153,8.768,0.008,13.133c0.115,3.123,0.374,6.24,0.576,9.359
				c0.016,0.242,0.144,0.483,0.133,0.721c-0.117,2.471-0.039,4.976-0.426,7.406c-0.817,5.133-0.246,10.244-0.314,15.359
				c-0.046,3.464,0.098,6.906,0.133,10.36c0.017,1.756-0.665,3.508-0.817,5.28c-0.143,1.669,0.104,3.37-0.02,5.042
				c-0.126,1.683-1.053,3.507-0.63,4.982c0.607,2.116-0.726,3.979,0.107,6.225c0.728,1.961-0.363,4.553-0.436,6.872
				c-0.036,1.145,0.724,2.345,0.579,3.449c-0.36,2.756-0.22,5.38,0.448,8.102c0.393,1.598-0.367,3.45-0.151,5.128
				c0.218,1.69,0.566,3.749,1.661,4.834c1.12,1.11,1.187,1.768,0.634,2.934c-1.13,2.387,1.24,3.767,2.077,5.254
				c0.882,1.566,3.492,2.356,5.5,3.027c1.624,0.542,3.475,0.405,5.226,0.565c4.978,0.454,7.637,5.049,5.785,9.854
				c-0.359,0.932-0.491,2.032-0.422,3.033c0.168,2.426,0.665,4.833,0.762,7.258c0.196,4.873-3.523,7.775-8.514,7.47
				c-3.144-0.192-6.38,0.362-9.508,0.943c-1.822,0.338-3.455,1.693-5.278,2.037c-1.893,0.357-4.052,0.492-5.842-0.074
				c-2.825-0.892-5.686-2.105-8.078-3.816c-2.81-2.011-5.24-4.603-7.606-7.155c-0.713-0.77-0.833-2.233-0.929-3.403
				c-0.239-2.881-1.851-5.343-1.713-8.479c0.178-4.057-0.439-8.117,0.587-12.196c0.299-1.187-0.709-2.66-0.939-4.033
				c-0.48-2.857-0.898-5.727-1.205-8.607c-0.069-0.646,0.641-1.365,0.601-2.027c-0.07-1.16-0.559-2.29-0.667-3.452
				c-0.289-3.092-0.637-6.195-0.646-9.294c-0.01-3.3,0.414-6.598,0.518-9.901c0.097-3.098-0.026-6.202,0.041-9.302
				c0.057-2.63,0.402-5.262,0.325-7.884c-0.053-1.82-0.91-3.633-0.867-5.435c0.072-2.969,0.6-5.926,0.902-8.892
				c0.15-1.478,0.331-2.965,0.308-4.445c-0.044-2.831-0.954-5.88-0.183-8.442c1.282-4.26-0.595-8.228-0.045-12.435
				c0.79-6.048,1.509-12.256-0.31-18.384c-0.463-1.558-0.064-3.406,0.089-5.107L0.939,87.639z"/>
			<path fill="#FFFFFF" d="M144.416,32.915c1.354-1.326,2.584-1.215,3.954,0.737c1.556,2.215,3.529,4.343,4.342,6.829
				c1.309,4.006,3.263,7.761,4.639,11.74c1.709,4.944,1.047,10.099,2.89,14.856c0.292,0.755-0.227,1.824-0.302,2.304
				c0.4,1.305,1.029,2.301,0.918,3.206c-0.262,2.129,0.869,4.398-0.71,6.434c-0.38,0.49-0.19,1.455-0.184,2.2
				c0.004,0.592,0.127,1.184,0.211,1.887c1.031,0.024,2.163,0.081,1.604,1.997c-0.22,0.752,0.137,1.673,0.255,2.733
				c-0.306,0.021-0.754,0.051-1.011,0.069c-0.105,0.979-0.21,1.952-0.363,3.372c-0.035-0.032,0.355,0.323,0.97,0.885
				c-0.834,0.209-1.46,0.367-2.068,0.52c1.274,0.786,2.825,5.292,2.391,6.714c-0.616,2.021-1.416,4.043-1.608,6.114
				c-0.117,1.26,0.979,2.586,1.139,3.928c0.217,1.815,0.018,3.677,0.069,5.517c0.09,3.22,0.29,6.437,0.339,9.656
				c0.046,3.019-0.139,6.043-0.051,9.059c0.114,3.928,0.51,7.849,0.567,11.776c0.039,2.654-0.28,5.314-0.471,7.969
				c-0.233,3.229-0.546,6.453-0.739,9.684c-0.161,2.676,0.061,5.4-0.355,8.029c-0.547,3.454-0.519,7.052-2.363,10.27
				c-0.493,0.861-0.054,2.229-0.151,3.355c-0.061,0.708-0.298,1.407-0.515,2.091c-0.063,0.2-0.505,0.444-0.48,0.484
				c1.649,2.622-1.197,4.637-0.976,7.101c0.07,0.788-0.663,1.661-1.064,2.477c-1.722,3.499-3.314,7.073-5.228,10.464
				c-1.736,3.075-3.931,5.889-5.729,8.934c-1.21,2.05-3.314,3.615-4.223,5.404c-0.906,1.782-2.413,2.253-3.419,3.505
				c-1.06,1.319-2.319,2.502-3.61,3.606c-3.425,2.927-6.87,5.834-10.399,8.633c-1.416,1.123-3.114,1.885-4.607,2.92
				c-1.184,0.821-2.227,1.844-3.381,2.713c-0.759,0.572-1.731,1.587-2.389,1.439c-2.409-0.545-3.014,2.02-4.828,2.431
				c-2.643,0.599-5.203,1.649-7.868,2.054c-4.073,0.619-8.201,0.881-12.311,1.234c-1.761,0.152-2.747-0.847-2.899-2.524
				c-0.175-1.928-0.15-3.874-0.26-5.809c-0.15-2.642-0.499-5.282-0.472-7.92c0.022-2.098,0.255-4.252,0.807-6.269
				c0.569-2.078,3.784-3.697,5.969-3.946c1.26-0.144,2.455-1.063,3.628-1.726c1.514-0.855,2.873-2.118,4.482-2.639
				c2.769-0.896,4.997-2.482,7.249-4.223c2.38-1.841,5.21-3.122,7.489-5.065c2.781-2.37,6.082-4.008,8.284-7.272
				c2.384-3.534,3.781-7.445,5.725-11.13c1.871-3.548,3.219-7.184,3.584-11.249c0.271-3.018,1.345-5.957,1.715-8.974
				c0.299-2.437,0.084-4.938,0.092-7.41c0.005-1.609-0.112-3.228,0.026-4.825c0.323-3.722,0.788-7.431,1.155-11.15
				c0.157-1.583,0.6-3.27,0.242-4.746c-0.885-3.643,0.537-7.229-0.075-10.824c-0.245-1.437-0.662-2.89-0.607-4.321
				c0.095-2.482,0.549-4.947,0.75-7.428c0.107-1.319,0.027-2.657-0.018-3.985c-0.1-2.957,0.293-6.062-0.491-8.83
				c-0.871-3.075-0.263-5.85,0.119-8.755c0.073-0.558,0.416-1.186,0.255-1.651c-1.245-3.614,0.608-7.169,0.132-10.75
				c-0.42-3.163-0.907-6.318-1.328-9.481c-0.345-2.596-0.655-5.197-0.948-7.799c-0.265-2.348,0.298-5.276-0.907-6.918
				c-1.829-2.489-1.422-6.128-4.724-7.918c-1.379-0.748-2.419-3.253-2.498-5.01c-0.128-2.826-1.953-4.547-3.613-5.798
				c-5.322-4.012-10.914-7.702-16.631-11.135c-2.093-1.257-4.802-1.563-7.275-2.097c-2.781-0.6-5.622-0.914-8.417-1.453
				c-2.39-0.461-2.816-1.577-2.534-3.964c0.441-3.723,0.488-7.491,0.778-11.234c0.215-2.781,0.156-5.668,0.929-8.298
				c0.944-3.212,3.444-4.718,7.246-3.724c2.079,0.544,4.355,0.325,6.441,0.85c1.832,0.461,3.52,1.49,5.282,2.242
				c0.414,0.177,0.876,0.241,1.311,0.372c2.988,0.899,6.187,1.405,8.892,2.84c1.92,1.018,4.15,0.915,5.84,2.198
				c1.739,1.321,3.321,2.848,5.037,4.202c2.196,1.732,4.826,3.066,6.598,5.145c2.363,2.772,6.477,3.387,8.038,6.97
				C142.599,28.874,143.53,30.927,144.416,32.915z"/>
		</g>
		<path fill="#FFFFFF" d="M378.465,142.598c-0.293,0.406-0.586,0.813-0.891,1.236c-0.122-0.152-0.29-0.263-0.293-0.379
			c-0.103-3.816-0.185-7.633-0.287-11.449c-0.015-0.566-0.324-1.211-0.14-1.681c1.664-4.259,0.557-8.627,0.728-12.948
			c0.198-5.013,1.562-9.983,1.716-14.994c0.162-5.245,3.7-7.567,7.432-9.464c1.82-0.925,4.611-0.709,6.723-0.133
			c4.497,1.227,8.119,4.076,11.418,7.368c1.435,1.431,3.143,2.661,4.904,3.674c1.917,1.103,3.439-0.1,5.125-1.162
			c3.62-2.279,7.013-5.171,11.638-5.369c0.536-0.023,1.155-0.514,1.552-0.953c2.249-2.486,4.964-3.715,8.365-3.652
			c1.111,0.021,2.329-0.456,3.335-1.004c3.967-2.162,8.326-1.135,12.487-1.669c2.109-0.271,4.422-0.946,6.331-0.383
			c4.657,1.373,9.591-0.213,14.207,2.013c3.558,1.715,7.707,2.16,11.391,3.666c6.587,2.692,13.369,5.339,18.297,10.699
			c3.056,3.324,5.449,7.302,7.857,11.163c2.035,3.265,3.769,6.732,5.447,10.201c2.921,6.038,3.422,12.545,3.416,19.13
			c-0.003,3.314,0.136,6.628,0.08,9.94c-0.031,1.832-0.342,3.658-0.51,5.488c-0.101,1.103-0.466,2.288-0.194,3.297
			c0.718,2.673,0.297,5.221,0.031,7.899c-0.328,3.291,0.367,6.671,0.301,10.006c-0.11,5.501-0.681,10.998-0.669,16.495
			c0.01,4.457,0.652,8.91,0.88,13.372c0.064,1.248-0.468,2.515-0.52,3.781c-0.314,7.603-0.556,15.21-0.848,22.814
			c-0.149,3.872-3.628,10.4-8.227,11.505c-2.545,0.611-5.056,1.364-7.358,0.082c-2.047-1.14-4.086-2.692-5.444-4.56
			c-1.318-1.813-1.774-4.255-2.585-6.43c-0.109-0.293-0.118-0.641-0.101-0.96c0.212-4.001,0.353-8.009,0.693-12
			c0.172-2.026,0.857-4.008,1.023-6.033c0.099-1.208-0.476-2.454-0.546-3.695c-0.18-3.206-0.233-6.42-0.364-9.629
			c-0.121-2.974-0.373-5.946-0.391-8.92c-0.016-2.516,0.247-5.034,0.327-7.552c0.025-0.798-0.178-1.601-0.21-2.404
			c-0.108-2.729,0.228-5.56-0.403-8.159c-0.529-2.177,0.003-4.1,0.045-6.141c0.075-3.602-0.136-7.212-0.02-10.811
			c0.228-7.022,0.85-14.201-0.967-20.942c-1.17-4.338-0.769-9.555-5.111-12.942c-1.588-1.239-2.12-3.764-3.364-5.542
			c-0.55-0.786-1.805-1.04-2.514-1.758c-3.79-3.839-8.426-5.917-13.652-6.929c-6.978-1.351-13.883-1.69-21.057-0.99
			c-6.005,0.586-11.204,2.922-16.535,5.009c-2.88,1.127-5.108,3.832-7.778,5.601c-5.017,3.326-7.836,8.207-10.209,13.514
			c-0.679,1.519-2.082,2.709-2.791,4.22c-1.213,2.585-2.143,5.303-3.182,7.969c-0.056,0.144,0.039,0.353-0.029,0.485
			c-2.086,4.109-1.188,8.554-1.493,12.867c-0.096,1.362-0.595,2.693-0.725,4.055c-0.132,1.382-0.103,2.79-0.025,4.18
			c0.114,2.063,0.569,4.132,0.464,6.177c-0.322,6.293-0.944,12.57-1.251,18.863c-0.244,4.985-0.129,9.987-0.298,14.978
			c-0.146,4.31-0.56,8.612-0.681,12.922c-0.095,3.357,0.138,6.722,0.118,10.083c-0.028,4.666-0.583,9.102-3.426,13.176
			c-3.849,5.515-6.066,6.344-13.234,5.574c-4.951-0.532-7.838-3.435-10.069-7.113c-1.137-1.874-1.283-4.486-1.43-6.793
			c-0.257-4.03-1.611-8.15,0.63-12.101c0.255-0.449-0.495-1.373-0.417-2.034c0.209-1.776,0.767-3.518,0.89-5.293
			c0.093-1.331-0.371-2.69-0.417-4.043c-0.142-4.199-0.354-8.406-0.232-12.601c0.064-2.215,1.629-4.726,0.969-6.541
			c-0.915-2.519-0.215-4.749-0.253-7.074c-0.07-4.364,0.034-8.742,0.312-13.098c0.254-3.989,0.943-7.949,1.211-11.938
			c0.097-1.437-0.696-2.919-0.696-4.38c0-4.178,0.14-8.358,0.365-12.53c0.049-0.905,0.749-1.757,1.026-2.671
			c0.341-1.122,0.554-2.282,0.822-3.426C378.945,142.752,378.705,142.675,378.465,142.598z M513.953,240.828
			c-0.759-1.426-1.717-2.433-1.781-3.495c-0.19-3.144-0.032-6.309,0-9.466c0.025-2.422-0.086-4.859,0.143-7.262
			c0.193-2.027-1.716-4.128,0.239-6.098c0.202-0.204,0.018-0.792,0.01-1.202c-0.063-3.156-0.322-6.324-0.137-9.466
			c0.207-3.495,1.054-6.956,1.198-10.449c0.194-4.691,0.085-9.402-0.089-14.097c-0.14-3.778,1.173-7.477-0.219-11.386
			c-0.898-2.522-0.419-5.537-0.538-8.332c-0.161-3.78-0.24-7.565-0.486-11.339c-0.092-1.413-0.792-2.8-0.805-4.203
			c-0.051-5.739-1.693-11.062-4.015-16.211c-1.487-3.297-3.38-6.297-5.619-9.221c-2.864-3.741-5.217-7.795-9.384-10.348
			c-1.195-0.732-1.992-2.222-3.233-2.751c-3.08-1.312-6.32-2.242-9.478-3.378c-2.17-0.781-4.247-1.927-6.474-2.414
			c-3.442-0.752-6.991-1.562-10.468-1.455c-3.611,0.111-7.404-2.192-10.895,0.539c-0.25,0.195-0.795,0.02-1.202,0.004
			c-1.745-0.068-3.523-0.388-5.227-0.159c-3.258,0.439-6.511,1.041-9.692,1.863c-2.106,0.544-4.121,1.508-6.11,2.429
			c-3.097,1.435-6.539,2.506-9.1,4.621c-3.183,2.629-6.964,3.474-10.51,5.029c-0.506,0.222-1.262,0.025-1.858-0.139
			c-2.761-0.762-4.989-2.224-7.104-4.274c-2.07-2.006-4.999-3.093-7.361-4.84c-3.162-2.34-5.705-1.791-6.194,1.927
			c-0.603,4.581-0.709,9.235-0.872,13.863c-0.162,4.615-0.095,9.237-0.191,13.854c-0.073,3.51-0.193,7.021-0.396,10.525
			c-0.106,1.827-0.979,3.778-0.558,5.432c0.943,3.711,0.336,7.328,0.195,10.992c-0.223,5.816-0.458,11.632-0.562,17.451
			c-0.119,6.688-0.054,13.379-0.159,20.068c-0.065,4.194-0.337,8.385-0.438,12.579c-0.081,3.389-0.026,6.781-0.066,10.171
			c-0.054,4.567-0.159,9.134-0.209,13.701c-0.033,2.977-0.365,6.017,0.129,8.91c0.284,1.659,1.649,3.924,3.061,4.432
			c2.773,0.998,6.527-2.067,7.097-5.184c0.296-1.622,0.444-3.282,0.524-4.932c0.183-3.78,0.371-7.564,0.391-11.348
			c0.019-3.545-0.522-7.127-0.17-10.627c0.303-3.012,1.351-5.897,1.005-9.061c-0.283-2.59,0.069-5.253,0.194-7.882
			c0.214-4.514,0.423-9.03,0.731-13.538c0.143-2.098,0.691-4.177,0.745-6.272c0.138-5.355-0.055-10.722,0.202-16.069
			c0.124-2.562-0.183-5.15,1.277-7.72c1.273-2.24,1.334-5.143,2.124-7.693c0.361-1.168,1.27-2.154,1.782-3.29
			c0.867-1.925,0.299-4.699,3.256-5.367c0.061-0.014,0.057-0.29,0.093-0.441c0.809-3.405,2.825-6.173,4.416-9.179
			c1.469-2.775,3.843-4.589,5.332-7.205c0.968-1.701,2.924-2.901,4.59-4.117c0.811-0.592,2.072-0.539,2.955-1.069
			c2.629-1.579,5.093-3.441,7.765-4.939c4.684-2.626,9.901-3.697,15.127-4.533c3.449-0.552,6.969-0.664,10.454-0.999
			c0.868-0.083,1.741-0.443,2.588-0.377c5.731,0.447,10.975,2.706,16.319,4.562c1.799,0.625,3.645,1.316,5.213,2.362
			c2.785,1.858,5.274,4.164,8.079,5.989c2.097,1.365,3.779,2.887,4.622,5.279c0.175,0.496,0.632,0.893,0.956,1.337
			c2.984,4.078,5.216,8.444,5.373,13.644c0.105,3.466,0.19,6.937,0.459,10.392c0.282,3.616,0.937,7.207,1.131,10.825
			c0.206,3.846-0.008,7.713,0.089,11.568c0.085,3.398,0.598,6.801,0.46,10.183c-0.144,3.526-0.899,7.024-1.283,10.546
			c-0.56,5.144-1.012,10.299-1.536,15.446c-0.597,5.853-1.267,11.7-1.82,17.557c-0.297,3.151-0.416,6.32-0.611,9.481
			c-0.005,0.078,0.024,0.162,0.05,0.239c0.972,2.932,1.861,5.896,2.945,8.786c0.819,2.183,2.941,3.159,4.917,3.288
			c2.199,0.143,4.342-0.54,4.877-3.534C510.434,242.127,511.136,240.109,513.953,240.828z"/>
		<g>
			<path fill="#FFFFFF" d="M643.11,225.828c5.243,0.649,9.786,0.116,14.004-1.859c2.33-1.091,4.405-2.756,6.52-4.266
				c2.167-1.548,4.428-3.037,6.31-4.893c2.153-2.124,3.802-4.753,5.907-6.933c4.032-4.177,4.935-9.531,5.813-14.868
				c0.28-1.703,0.614-3.276,1.197-4.917c0.488-1.371-0.21-3.182-0.455-4.787c-0.139-0.91-0.746-1.86-0.587-2.686
				c0.757-3.948-0.76-7.571-1.464-11.291c-0.545-2.878-1.185-5.806-2.327-8.48c-0.914-2.14-2.47-4.092-4.057-5.84
				c-2.297-2.53-4.831-4.854-7.37-7.148c-0.737-0.666-1.826-0.953-2.772-1.372c-6.332-2.807-12.957-3.867-19.865-3.478
				c-2.355,0.133-4.791,0.21-7.083-0.236c-3.63-0.708-4.45-2.083-4.337-5.694c0.029-0.928-0.241-1.865-0.213-2.792
				c0.083-2.735,0.217-5.468,0.387-8.199c0.12-1.922,0.354-3.837,0.491-5.759c0.063-0.887-0.168-1.829,0.051-2.663
				c0.522-1.985,0.027-3.188-2.109-3.545c-0.358-0.06-0.973-0.437-0.955-0.616c0.216-2.14,0.184-4.41,0.97-6.339
				c0.36-0.884,2.679-1.847,3.595-1.481c4.873,1.943,9.16-0.763,13.338-1.937c3.519-0.989,7.388-2.592,10.02-6.126
				c1.513-2.031,4.13-3.297,4.895-6.039c0.721-2.585,1.481-5.164,2.051-7.783c0.664-3.049,1.59-6.137,1.604-9.212
				c0.028-6.088,0.114-12.289-0.984-18.23c-0.824-4.46-3.851-8.466-5.191-12.888c-1.703-5.619-6.213-8.589-10.207-12.011
				c-3.966-3.398-9.03-4.164-14.095-4.759c-5.082-0.597-5.616-1.365-5.41-6.504c0.162-4.029,0.348-8.057,0.531-12.085
				c0.123-2.703,3.93-6.902,6.741-7.105c2.468-0.178,5.326-0.728,7.383,0.233c6.122,2.86,13.367,2.2,18.991,6.208
				c2.396,1.708,5.8,2.28,6.882,5.654c0.124,0.388,0.722,0.871,1.117,0.887c4.51,0.19,5.637,4.571,8.472,6.817
				c1.539,1.219,2.918,2.729,4.078,4.32c2.675,3.669,5.846,7.181,7.583,11.28c2.678,6.32,6.146,12.427,6.757,19.549
				c0.364,4.239,1.827,8.403,2.005,12.634c0.216,5.122-0.336,10.283-0.687,15.419c-0.175,2.57-0.614,5.124-0.981,7.679
				c-0.678,4.727-3.288,8.66-5.84,12.426c-2.975,4.391-6.01,8.767-6.737,14.011c-0.496,3.581-1.562,7.665,1.685,10.845
				c0.114,0.111,0.279,0.289,0.256,0.403c-0.647,3.322,1.899,4.179,3.995,5.653c1.277,0.898,1.931,2.691,2.843,4.095
				c2.4,3.695,5.266,7.183,7.05,11.156c1.913,4.26,2.885,8.956,4.112,13.504c0.746,2.766,1.47,5.588,1.711,8.427
				c0.318,3.744,0.161,7.528,0.19,11.296c0.019,2.498,0.224,5.022-0.053,7.489c-0.284,2.521-0.985,5.006-1.629,7.474
				c-0.881,3.374-1.746,6.764-2.868,10.062c-1.171,3.446-2.451,6.882-4.036,10.152c-1.233,2.542-2.967,4.848-4.551,7.209
				c-1.747,2.604-3.507,5.204-5.406,7.696c-0.737,0.967-2.019,1.508-2.801,2.452c-4.988,6.022-11.887,9.36-18.303,13.438
				c-3.77,2.396-7.682,3.178-11.976,3.374c-3.45,0.157-6.871,0.936-10.322,1.116c-3.424,0.179-6.885,0.117-10.293-0.218
				c-0.769-0.076-1.932-1.695-1.98-2.65c-0.304-6.137-0.482-12.289-0.41-18.432c0.029-2.45,0.764-5.165,3.269-6.188
				C639.4,225.725,641.639,225.97,643.11,225.828z M694.021,65.114c-0.763-2.842-1.262-4.742-1.784-6.635
				c-0.578-2.096-1.183-4.184-1.762-6.28c-0.193-0.698-0.217-1.469-0.527-2.104c-1.693-3.466-3.455-6.898-5.186-10.346
				c-0.921-1.835-1.591-3.854-2.797-5.474c-1.62-2.177-4.164-3.78-5.383-6.114c-1.898-3.635-5.181-5.644-8.055-8.1
				c-1.689-1.444-4.412-1.592-5.378-4.112c-0.105-0.274-0.616-0.428-0.967-0.566c-2.893-1.137-5.767-2.331-8.71-3.323
				c-0.647-0.218-1.854,0.04-2.262,0.53c-1.059,1.271-1.81,0.651-2.894,0.118c-1.133-0.557-2.444-0.871-3.708-1.006
				c-1.33-0.142-2.736-0.13-4.032,0.16c-1.041,0.233-2.588,0.778-2.838,1.537c-1.163,3.533,1.387,6.677,4.96,7.254
				c2.673,0.432,5.653,1.083,7.731,2.65c4.654,3.51,9.649,6.65,13.385,11.347c2.514,3.161,4.099,6.755,5.879,10.268
				c1.007,1.987,1.799,4.123,2.378,6.275c0.846,3.147,1.7,6.339,2.035,9.565c0.523,5.05,0.879,10.15,0.79,15.22
				c-0.052,3-1.024,5.999-1.712,8.968c-0.869,3.749-2.043,7.325-4.302,10.598c-1.819,2.635-3.853,4.972-5.949,7.366
				c-3.142,3.588-6.392,6.546-11.115,7.608c-1.556,0.35-3.189,0.488-4.661,1.05c-4.333,1.654-5.376,0.473-4.91,5.75
				c0.07,0.789,0.004,1.676-0.291,2.398c-1.601,3.914-1.652,7.925-1.216,12.06c0.233,2.206,1.398,2.799,3.275,3.009
				c1.829,0.204,3.653,0.507,5.457,0.873c1.223,0.248,2.433,1.039,3.608,0.964c3.831-0.246,7.456,0.331,10.803,2.176
				c1.86,1.025,3.421,2.958,5.362,3.398c4.773,1.08,7.434,5.003,9.78,8.182c4.744,6.429,7.798,13.973,8.041,22.269
				c0.065,2.215-0.297,4.485,0.067,6.641c0.811,4.8,1.109,9.516,0.022,14.327c-1.686,7.457-4.598,14.31-8.529,20.898
				c-3.406,5.71-8.496,9.388-13.793,12.699c-3.395,2.122-7.622,2.981-11.553,4.149c-2.257,0.67-4.716,0.645-6.999,1.251
				c-4.246,1.128-5.823,4.273-5.123,9.68c0.553,4.272,5.475,7.041,9.504,5.366c0.43-0.179,0.925-0.29,1.388-0.284
				c3.881,0.056,7.753,0.104,11.332-1.78c0.402-0.212,0.87-0.297,1.307-0.441c3.464-1.143,6.997-2.115,10.377-3.467
				c5.494-2.198,8.814-7.187,13.064-10.935c2.524-2.225,4.094-5.654,5.737-8.731c2.849-5.334,5.703-10.669,7.188-16.638
				c0.789-3.173,1.439-6.286,1.339-9.569c-0.104-3.39-0.491-6.863,0.06-10.163c1.248-7.48-0.073-14.658-1.721-21.846
				c-0.317-1.384-1.438-2.685-1.431-4.02c0.011-2.306-0.86-4.123-2.166-5.797c-1.287-1.65-2.842-3.091-4.132-4.74
				c-1.868-2.388-3.615-4.872-5.39-7.332c-1.183-1.64-2.384-3.273-3.467-4.978c-0.968-1.523-1.439-3.561-2.739-4.635
				c-3.071-2.538-3.028-5.961-2.931-9.204c0.217-7.256,3.814-13.465,6.966-19.75c1.402-2.795,3.313-5.34,4.652-8.161
				c1.294-2.727,2.546-5.588,3.095-8.526c0.709-3.79,0.833-7.709,0.962-11.581C694.271,71.471,694.067,67.851,694.021,65.114z"/>
			<path fill="#FFFFFF" d="M553.504,124.539c0.739,0.132,1.101,0.196,1.77,0.316c-0.501-0.896-0.967-1.538-1.242-2.254
				c-1.099-2.859-0.887-5.74-0.076-8.634c0.111-0.396-0.197-0.891-0.186-1.337c0.091-3.752,0.242-7.502,0.307-11.254
				c0.027-1.584-0.288-3.19-0.12-4.751c0.191-1.782-0.033-3.554,0.169-5.336c0.147-1.299-0.278-2.653-0.23-3.974
				c0.075-2.055,0.225-4.122,0.55-6.151c0.348-2.176,1.024-4.299,1.373-6.475c0.134-0.838-0.202-2.514-0.384-2.523
				c-2.064-0.097-1.167-1.568-1.182-2.456c-0.057-3.361-0.039-6.725,0.032-10.086c0.029-1.361,0.352-2.717,0.38-4.078
				c0.025-1.216-0.235-2.436-0.259-3.657c-0.116-5.865-0.206-11.731-0.281-17.597c-0.043-3.349-0.028-6.699-0.062-10.049
				c-0.035-3.487,1.854-6.242,3.519-9.041c1.963-3.299,5.011-5.563,8.368-7.168c4.832-2.31,9.96-3.36,15.34-1.94
				c0.347,0.092,0.778-0.175,1.176-0.225c1.747-0.217,3.494-0.445,5.246-0.614c3.19-0.308,6.381-0.788,9.575-0.813
				c4.838-0.038,6.3,1.698,5.887,6.464c-0.372,4.302-0.591,8.616-0.864,12.926c-0.02,0.318-0.029,0.695,0.116,0.958
				c1.943,3.55-1.388,6.408-4.734,6.861c-2.85,0.385-5.73,0.779-8.49,1.553c-4.298,1.205-7.63,5.053-7.633,9.842
				c-0.003,4.908,0.259,9.818,0.174,14.723c-0.114,6.518-0.612,13.032-0.635,19.549c-0.014,3.981-1.084,7.825-1.34,11.627
				c-0.373,5.537-1.908,11.336,0.446,16.906c0.43,1.016,0.58,2.244,0.52,3.356c-0.152,2.81,1.83,3.042,3.806,3.777
				c3.063,1.138,5.935,0.061,8.892-0.119c1.22-0.074,2.452,0.069,3.677,0.037c2.197-0.057,3.377,0.934,3.637,3.152
				c0.349,2.97,1.081,5.835-0.024,8.917c-0.481,1.342,0.475,3.199,0.773,4.823c0.099,0.538,0.427,1.199,0.23,1.598
				c-1.301,2.644-0.958,5.021,0.602,7.479c0.827,1.303-0.486,3.426-2.293,3.832c-3.324,0.747-6.667,1.44-10.033,1.959
				c-4.516,0.697-9.893,5.777-10.468,10.329c-0.26,2.061-0.043,4.179-0.139,6.266c-0.147,3.185-0.463,6.363-0.557,9.548
				c-0.164,5.573-0.238,11.149-0.305,16.725c-0.046,3.857,0.04,7.716-0.039,11.572c-0.052,2.55-0.254,5.1-0.455,7.645
				c-0.6,7.597,1.955,14.155,7.389,19.235c1.653,1.545,4.964,1.981,7.451,1.834c5.15-0.305,6.232,1.031,5.43,6.291
				c-0.547,3.591,0.096,7.36,0.177,11.051c0.044,2.013,0.213,4.049-0.013,6.036c-0.266,2.336-3.809,4.653-6.726,4.535
				c-5.79-0.235-11.584-0.457-17.364-0.864c-4.82-0.339-9.664-1.041-13.94-3.376c-2.234-1.22-4.098-3.234-5.86-5.138
				c-0.674-0.729-0.606-2.15-0.864-3.258c-0.782-3.359-2.47-6.837-2.057-10.043c0.35-2.715-0.048-5.304,0.161-7.937
				c0.376-4.746,0.655-9.504,0.788-14.262c0.093-3.299-0.211-6.608-0.174-9.911c0.021-1.886,0.584-3.775,0.526-5.651
				c-0.137-4.454-0.605-8.899-0.723-13.353c-0.054-2.048,0.533-4.107,0.585-6.167c0.043-1.694-0.347-3.395-0.419-5.098
				c-0.192-4.538-1.012-9.192-0.303-13.593c1.041-6.454,0.455-12.834,0.613-19.245C552.829,133.417,553.23,129.007,553.504,124.539z
				 M594.33,17.415c-0.35-4.167-0.975-5.242-3.632-5.222c-3.214,0.025-6.428,0.334-9.636,0.602c-2.489,0.208-5,0.376-7.442,0.862
				c-3.111,0.619-6.395,0.989-8.441,4.003c-2.959,4.358-4.12,9.092-3.287,14.308c0.09,0.56,0.098,1.138,0.095,1.708
				c-0.025,3.809-0.521,7.577-0.424,11.425c0.141,5.583-0.126,11.169,0.158,16.781c0.274,5.43-0.619,10.883-0.14,16.372
				c0.237,2.715-0.299,5.514-0.639,8.255c-0.219,1.767-1.278,3.598-0.991,5.23c1.243,7.068,0.261,14.054-0.22,21.072
				c-0.197,2.876-0.374,5.771-0.269,8.647c0.137,3.74,0.738,7.466,0.82,11.204c0.085,3.833-0.248,7.675-0.337,11.514
				c-0.128,5.5-0.211,11.001-0.292,16.501c-0.033,2.289-0.057,4.58,0.014,6.867c0.024,0.776,0.557,1.558,0.504,2.311
				c-0.228,3.212-0.737,6.408-0.867,9.621c-0.238,5.861-0.245,11.731-0.423,17.596c-0.066,2.19-0.509,4.375-0.487,6.56
				c0.043,4.469,0.293,8.935,0.44,13.403c0.087,2.642,0.094,5.288,0.221,7.927c0.112,2.321,0.109,4.685,0.574,6.944
				c0.647,3.14,1.174,6.489,2.714,9.202c1.264,2.228,3.715,4.053,6.037,5.336c2.323,1.283,5.095,2.016,7.752,2.367
				c3.601,0.475,7.279,0.386,10.926,0.482c3.431,0.091,4.425-0.697,4.778-4.224c0.213-2.129-0.066-4.303-0.02-6.455
				c0.05-2.379-1.507-3.393-3.409-3.833c-2.233-0.516-4.537-0.805-6.827-0.976c-3.69-0.275-5.147-1.417-6.006-4.992
				c-0.145-0.602-0.485-1.155-0.699-1.744c-1.253-3.449-2.525-6.891-3.717-10.361c-0.252-0.733-0.291-1.572-0.278-2.359
				c0.08-5.035,0.179-10.07,0.319-15.104c0.096-3.444,0.295-6.885,0.398-10.328c0.072-2.391,0.106-4.786,0.057-7.177
				c-0.016-0.773-0.515-1.539-0.515-2.307c0.006-5.551,0.095-11.102,0.125-16.652c0.004-0.721-0.236-1.441-0.263-2.165
				c-0.046-1.212-0.084-2.434,0.019-3.639c0.059-0.695,0.404-1.365,0.613-2.048c0.91-2.985,1.137-6.469,2.875-8.848
				c3.138-4.294,6.968-8.104,12.784-9.059c3.611-0.593,4.488-2.994,3.424-5.868c-0.283-0.763-0.222-1.731-0.076-2.562
				c0.607-3.434-0.501-6.187-3.492-7.157c-2.629-0.853-5.471-1.025-8.162-1.718c-2.232-0.575-5.461,1.115-6.402-2.61
				c-0.244-0.966-0.501-1.949-0.561-2.936c-0.119-1.946-0.062-3.903-0.157-5.851c-0.117-2.41-0.434-4.816-0.441-7.224
				c-0.006-2.162,0.443-4.326,0.417-6.486c-0.043-3.529-0.121-7.111,0.04-10.579c0.14-3.01,0.642-6.158,1.128-9.162
				c0.478-2.952-0.828-5.511-0.391-8.272c0.22-1.391,0.343-2.813,0.337-4.22c-0.015-3.421-0.378-6.858-0.142-10.257
				c0.272-3.925,0.845-7.856,1.651-11.708c0.531-2.541,1.174-5.359,2.701-7.328c2.994-3.863,6.675-7.036,11.536-8.76
				C593.432,22.647,594.613,20.789,594.33,17.415z"/>
		</g>
		<g>
			<path fill="#FFFFFF" d="M238.203,227.546c3.726-1.029,5.391,1.573,7.207,3.651c0.506,0.579,0.099,1.998,0.032,3.026
				c-0.287,4.456-0.572,8.912-0.92,13.363c-0.226,2.895-0.46,5.796-0.87,8.669c-0.379,2.655-2.466,3.905-5.118,3.388
				c-3.128-0.61-6.396-0.777-9.38-1.792c-5.091-1.732-10.283-3.492-14.919-6.14c-4.582-2.618-7.982-6.899-11.265-11.079
				c-2.46-3.132-5.074-6.17-7.255-9.489c-2.187-3.328-3.943-6.942-5.844-10.454c-0.645-1.191-1.285-2.413-1.707-3.693
				c-1.548-4.702-3.166-9.392-4.417-14.176c-0.555-2.123,0.032-4.537-0.481-6.68c-1.005-4.201-0.989-8.336-0.276-12.538
				c0.053-0.312-0.353-0.707-0.556-1.057c-0.803-1.381-1.174-2.586-0.383-4.327c0.686-1.509,0.323-3.483,0.478-5.247
				c0.255-2.905,0.593-5.804,0.815-8.711c0.082-1.08-0.268-2.216-0.072-3.261c1-5.313,1.915-10.655,3.266-15.883
				c0.795-3.078,2.345-5.961,3.552-8.933c0.123-0.303,0.39-0.668,0.311-0.914c-1.044-3.238,0.58-5.523,2.564-7.784
				c0.665-0.758,0.884-1.893,1.377-2.818c0.738-1.384,1.502-2.757,2.321-4.095c1.074-1.755,2.095-3.563,3.353-5.181
				c1.463-1.883,3.639-3.348,4.659-5.412c2.627-5.319,7.742-7.753,11.867-11.385c3.968-3.494,8.523-5.476,13.328-7.166
				c3.182-1.119,6.427-2.059,9.626-3.131c1.529-0.512,3.063-1.05,4.514-1.746c2.166-1.039,3.824-0.062,5.71,0.89
				c2.084,1.051,2.889,2.359,2.402,4.639c-0.653,3.061-1.163,6.153-1.746,9.23c-0.058,0.306-0.288,0.598-0.285,0.895
				c0.033,3.077,0.135,6.153,0.144,9.23c0.01,3.425-1.721,5.142-5.204,5.553c-7.338,0.864-13.085,4.132-16.304,11.09
				c-0.202,0.438-0.387,1.02-0.754,1.224c-4.451,2.482-5.015,7.269-6.861,11.315c-0.736,1.614-1.731,3.151-2.827,4.551
				c-2.262,2.89-2.899,6.287-3.391,9.76c-0.079,0.56,0.073,1.333-0.242,1.651c-2.723,2.755-1.889,6.547-2.898,9.79
				c-0.327,1.05,0.148,2.328,0.123,3.498c-0.05,2.316-0.292,4.631-0.278,6.945c0.025,4.182-0.138,8.405,0.391,12.532
				c0.357,2.782,1.77,5.428,2.703,8.138c0.26,0.756,0.447,1.54,0.746,2.279c1.053,2.608,1.991,5.276,3.252,7.781
				c1.492,2.964,3.265,5.787,4.93,8.664c1.954,3.377,4.698,5.901,8.19,7.644c0.549,0.274,0.929,0.878,1.472,1.174
				C234.9,225.905,236.56,226.71,238.203,227.546z M233.311,248.509c1.51-1.597,1.858-3.372,1.367-5.417
				c-0.223-0.927-0.3-1.925-0.237-2.878c0.156-2.327-0.62-4.005-2.761-5.15c-1.473-0.787-2.876-1.793-4.116-2.915
				c-3.398-3.074-6.479-6.542-10.102-9.309c-2.69-2.055-4.693-4.702-5.691-7.502c-1.487-4.169-4.726-7.515-4.956-12.34
				c-0.183-3.836-2.277-7.58-2.468-11.418c-0.278-5.575,0.342-11.201,0.686-16.798c0.138-2.235,0.541-4.455,0.861-6.676
				c0.46-3.189,0.609-6.473,1.504-9.538c1.958-6.708,4.287-13.308,6.493-19.943c1.065-3.204,2.205-6.335,4.633-8.887
				c2.875-3.021,5.499-6.278,8.296-9.374c1.435-1.588,2.864-3.244,4.562-4.512c1.71-1.277,3.884-1.927,5.608-3.189
				c1.868-1.367,4.318-2.108,5.022-4.886c0.842-3.322-0.131-6.44-0.571-9.627c-0.02-0.143-1.131-0.403-1.299-0.217
				c-1.321,1.466-2.932,1.48-4.783,1.788c-5.231,0.873-9.881,3.41-13.907,6.901c-3.478,3.015-6.994,6.016-10.186,9.32
				c-2.337,2.42-4.042,5.44-6.276,7.974c-2.182,2.476-1.639,6.108-4.222,8.523c-1.523,1.423-2.052,3.947-2.927,6.018
				c-1.625,3.848-3.189,7.721-4.742,11.599c-0.175,0.436-0.101,0.968-0.172,1.451c-0.246,1.686-0.458,3.378-0.768,5.053
				c-0.482,2.61-1.286,5.187-1.498,7.815c-0.357,4.416-0.2,8.873-0.544,13.291c-0.457,5.868-0.406,11.673,1.032,17.409
				c0.887,3.538,2.072,7.025,2.652,10.612c0.661,4.089,2.694,7.572,4.478,11.107c1.894,3.753,4.502,7.155,6.896,10.643
				c2.306,3.359,4.454,6.894,7.195,9.869c2.707,2.939,5.732,5.762,9.618,7.224C225.733,245.94,229.535,247.19,233.311,248.509z"/>
			<path fill="#FFFFFF" d="M277.039,247.536c0.187-1.411,0.302-3.275,0.704-5.075c0.646-2.891,0.48-5.663-0.492-8.455
				c-1.427-4.097,0.511-9.042,3.945-11.558c2.464-1.805,4.927-3.847,6.729-6.275c4.051-5.458,5.953-11.739,6.312-18.594
				c0.256-4.9,1.555-9.76,1.633-14.65c0.06-3.752,0.855-7.553-0.558-11.422c-0.637-1.744,0.681-4.213,1.156-6.343
				c0.132-0.592,0.597-1.147,0.605-1.723c0.036-2.571-0.265-5.166-0.022-7.712c0.404-4.234,1.197-8.429,1.703-12.656
				c0.606-5.066,0.029-9.93-2.942-14.278c-1.724-2.523-3.194-5.277-6.369-6.383c-1.755-0.611-3.531-1.238-5.16-2.112
				c-1.943-1.042-3.4-5.55-2.821-7.724c1.376-5.169,1.301-10.446,0.995-15.725c-0.058-0.998-0.586-2.002-0.499-2.968
				c0.313-3.47,2.554-4.204,5.608-3.752c0.642,0.095,1.354-0.367,2.021-0.331c0.89,0.048,1.77,0.324,2.651,0.515
				c3.288,0.713,5.948,3.501,9.927,2.108c4.178-1.463,8.709-1.892,12.961-3.181c3.896-1.181,7.239,0.752,10.092,2.249
				c2.691,1.412,4.911,4.717,6.101,7.685c0.965,2.407,0.063,5.55,0.044,8.366c-0.03,4.361-0.01,8.723-0.027,13.085
				c-0.001,0.311-0.125,0.622-0.199,0.932c-0.589,2.446-1.279,4.706-0.475,7.448c0.697,2.378-0.073,5.171-0.109,7.782
				c-0.07,5.098-0.066,10.198-0.117,15.297c-0.045,4.512-0.134,9.023-0.183,13.534c-0.053,4.82-0.004,9.642-0.143,14.459
				c-0.154,5.374-0.456,10.744-0.726,16.115c-0.057,1.131-0.338,2.252-0.372,3.383c-0.12,4.034-0.281,8.071-0.237,12.105
				c0.063,5.752,1.028,11.333,3.4,16.649c0.528,1.183,0.429,2.653,0.582,3.995c0.387,3.403,0.874,6.799,1.101,10.213
				c0.399,6-2.997,11.554-9.229,12.38c-4.178,0.553-8.207,0.038-11.648-3.245c-3.154-3.01-7.392-3.888-11.654-3.149
				c-2.863,0.497-5.584,1.776-8.395,2.613c-3.797,1.131-7.57,2.526-11.457,3.085c-1.632,0.235-3.387-1.564-3.96-3.581
				C277.27,249.792,277.235,248.883,277.039,247.536z M286.103,243.092c2.753-0.676,5.402-1.519,8.116-1.953
				c5.813-0.93,11.67-2.231,17.144,1.54c1.471,1.014,3.496,1.197,5.052,2.122c1.745,1.038,5.658,1.52,7.182,0.49
				c1.79-1.211,3.525-6.275,3.002-8.188c-1.266-4.632-2.891-9.238-3.483-13.966c-0.782-6.24-0.816-12.584-0.979-18.889
				c-0.125-4.827,0.047-9.662,0.089-14.493c0.015-1.726-0.117-3.473,0.101-5.174c0.207-1.622,1.59-3.592,1.039-4.715
				c-1.436-2.93-0.847-5.855-0.874-8.759c-0.032-3.474,0.338-6.952,0.574-10.426c0.083-1.22,0.668-2.545,0.352-3.627
				c-0.807-2.763-0.253-5.281,0.509-7.905c0.279-0.96-0.074-2.119-0.212-3.178c-0.143-1.098-0.851-2.393-0.481-3.239
				c1.241-2.844,0.362-5.737,0.513-8.574c0.277-5.236-0.496-10.566,0.161-15.731c0.646-5.08,0.797-9.975-0.727-14.817
				c-0.773-2.457-2.176-5.024-4.81-5.586c-2.384-0.509-5.077-0.245-7.507,0.272c-5.892,1.255-11.635,3.276-17.809,2.819
				c-0.61-0.045-1.622,0.541-1.862,1.089c-1.414,3.234-0.803,6.508,0.052,9.781c0.554,2.12,2.866,1.823,3.92,2.976
				c2.64,2.888,5.156,5.949,7.27,9.232c1.086,1.687,1.009,4.078,1.807,6.006c1.509,3.645,2.657,7.202,0.423,10.968
				c-0.159,0.269,0.031,0.782,0.132,1.162c1.672,6.286,1.258,12.597,0.342,18.938c-0.619,4.287-1.492,8.6-1.476,12.899
				c0.017,4.71-1.062,9.289-0.776,14.069c0.261,4.367-0.889,8.883-1.851,13.238c-0.628,2.842-1.985,5.531-3.102,8.253
				c-0.7,1.705-1.483,3.386-2.37,5.001c-0.851,1.55-1.821,3.044-2.851,4.483c-1.306,1.825-2.752,3.55-4.086,5.356
				c-0.692,0.937-1.57,1.879-1.852,2.953C285.457,232.515,285.083,237.595,286.103,243.092z"/>
		</g>
	</g>
</g>
</svg>
